{"glyphs":{"0":{"ha":1563,"x_min":0,"x_max":1389,"o":"m 1042 347 l 1042 1042 l 347 1042 l 347 347 l 1042 347 m 174 0 l 0 174 l 0 1215 l 174 1389 l 1215 1389 l 1389 1215 l 1389 174 l 1215 0 l 174 0 z "},"1":{"ha":694,"x_min":0,"x_max":521,"o":"m 174 0 l 174 1042 l 0 1042 l 0 1389 l 347 1389 l 521 1215 l 521 0 l 174 0 z "},"2":{"ha":1563,"x_min":0,"x_max":1389,"o":"m 0 0 l 0 694 l 174 868 l 1042 868 l 1042 1042 l 0 1042 l 0 1389 l 1215 1389 l 1389 1215 l 1389 694 l 1215 521 l 347 521 l 347 347 l 1389 347 l 1389 0 l 0 0 z "},"3":{"ha":1563,"x_min":0,"x_max":1389,"o":"m 0 0 l 0 347 l 1042 347 l 1042 521 l 174 521 l 174 868 l 1042 868 l 1042 1042 l 0 1042 l 0 1389 l 1215 1389 l 1389 1215 l 1389 868 l 1215 694 l 1389 521 l 1389 174 l 1215 0 l 0 0 z "},"4":{"ha":1563,"x_min":0,"x_max":1389,"o":"m 1042 0 l 1042 347 l 174 347 l 0 521 l 0 1389 l 347 1389 l 347 694 l 1042 694 l 1042 1389 l 1389 1389 l 1389 0 l 1042 0 z "},"5":{"ha":1563,"x_min":0,"x_max":1389,"o":"m 0 0 l 0 347 l 1042 347 l 1042 521 l 0 521 l 0 1389 l 1389 1389 l 1389 1042 l 347 1042 l 347 868 l 1215 868 l 1389 694 l 1389 174 l 1215 0 l 0 0 z "},"6":{"ha":1563,"x_min":0,"x_max":1389,"o":"m 1042 347 l 1042 521 l 347 521 l 347 347 l 1042 347 m 174 0 l 0 174 l 0 1215 l 174 1389 l 1389 1389 l 1389 1042 l 347 1042 l 347 868 l 1215 868 l 1389 694 l 1389 174 l 1215 0 l 174 0 z "},"7":{"ha":1563,"x_min":0,"x_max":1389,"o":"m 0 0 l 0 260 l 781 1042 l 0 1042 l 0 1215 l 174 1389 l 1389 1389 l 1389 1128 l 260 0 l 0 0 z "},"8":{"ha":1563,"x_min":0,"x_max":1389,"o":"m 1042 347 l 1042 521 l 347 521 l 347 347 l 1042 347 m 1042 868 l 1042 1042 l 347 1042 l 347 868 l 1042 868 m 174 0 l 0 174 l 0 521 l 174 694 l 0 868 l 0 1215 l 174 1389 l 1215 1389 l 1389 1215 l 1389 868 l 1215 694 l 1389 521 l 1389 174 l 1215 0 l 174 0 z "},"9":{"ha":1563,"x_min":0,"x_max":1389,"o":"m 1042 868 l 1042 1042 l 347 1042 l 347 868 l 1042 868 m 0 0 l 0 347 l 1042 347 l 1042 521 l 174 521 l 0 694 l 0 1215 l 174 1389 l 1215 1389 l 1389 1215 l 1389 174 l 1215 0 l 0 0 z "}," ":{"ha":694,"x_min":0,"x_max":0,"o":""},"!":{"ha":521,"x_min":0,"x_max":347,"o":"m 0 0 l 0 347 l 347 347 l 347 0 l 0 0 m 0 521 l 0 1389 l 347 1389 l 347 694 l 174 521 l 0 521 z "},"\"":{"ha":1042,"x_min":0,"x_max":868,"o":"m 0 868 l 0 1389 l 347 1389 l 347 1042 l 174 868 l 0 868 m 521 868 l 521 1389 l 868 1389 l 868 1042 l 694 868 l 521 868 z "},"#":{"ha":1563,"x_min":0,"x_max":1389,"o":"m 868 521 l 868 868 l 521 868 l 521 521 l 868 521 m 174 0 l 174 174 l 0 174 l 0 521 l 174 521 l 174 868 l 0 868 l 0 1215 l 174 1215 l 174 1389 l 521 1389 l 521 1215 l 868 1215 l 868 1389 l 1215 1389 l 1215 1215 l 1389 1215 l 1389 868 l 1215 868 l 1215 521 l 1389 521 l 1389 174 l 1215 174 l 1215 0 l 868 0 l 868 174 l 521 174 l 521 0 l 174 0 z "},"$":{"ha":1563,"x_min":0,"x_max":1389,"o":"m 1042 347 l 1042 521 l 868 521 l 868 347 l 1042 347 m 521 868 l 521 1042 l 347 1042 l 347 868 l 521 868 m 521 -174 l 521 0 l 0 0 l 0 347 l 521 347 l 521 521 l 174 521 l 0 694 l 0 1215 l 174 1389 l 521 1389 l 521 1563 l 868 1563 l 868 1389 l 1389 1389 l 1389 1042 l 868 1042 l 868 868 l 1215 868 l 1389 694 l 1389 174 l 1215 0 l 868 0 l 868 -174 l 521 -174 z "},"%":{"ha":1563,"x_min":0,"x_max":1389,"o":"m 1042 0 l 1042 347 l 1389 347 l 1389 0 l 1042 0 m 0 1042 l 0 1389 l 347 1389 l 347 1042 l 0 1042 m 0 0 l 0 260 l 1128 1389 l 1389 1389 l 1389 1128 l 260 0 l 0 0 z "},"&":{"ha":1563,"x_min":0,"x_max":1389,"o":"m 868 347 l 868 521 l 347 521 l 347 347 l 868 347 m 174 0 l 0 174 l 0 521 l 174 694 l 0 868 l 0 1215 l 174 1389 l 694 1389 l 694 1042 l 347 1042 l 347 868 l 868 868 l 868 1215 l 1042 1215 l 1215 1042 l 1215 868 l 1389 868 l 1389 521 l 1215 521 l 1215 347 l 1389 347 l 1389 0 l 174 0 z "},"'":{"ha":521,"x_min":0,"x_max":347,"o":"m 0 868 l 0 1389 l 347 1389 l 347 1042 l 174 868 l 0 868 z "},"(":{"ha":694,"x_min":0,"x_max":521,"o":"m 174 -174 l 0 0 l 0 1389 l 174 1563 l 521 1563 l 521 1215 l 347 1215 l 347 174 l 521 174 l 521 -174 l 174 -174 z "},")":{"ha":694,"x_min":0,"x_max":521,"o":"m 0 -174 l 0 174 l 174 174 l 174 1215 l 0 1215 l 0 1563 l 347 1563 l 521 1389 l 521 0 l 347 -174 l 0 -174 z "},"*":{"ha":1563,"x_min":0,"x_max":1389,"o":"m 0 0 l 0 260 l 260 521 l 0 521 l 0 868 l 260 868 l 0 1128 l 0 1389 l 260 1389 l 521 1128 l 521 1389 l 868 1389 l 868 1128 l 1128 1389 l 1389 1389 l 1389 1128 l 1128 868 l 1389 868 l 1389 521 l 1128 521 l 1389 260 l 1389 0 l 1128 0 l 868 260 l 868 0 l 521 0 l 521 260 l 260 0 l 0 0 z "},"+":{"ha":1215,"x_min":0,"x_max":1042,"o":"m 347 174 l 347 521 l 0 521 l 0 868 l 347 868 l 347 1215 l 694 1215 l 694 868 l 1042 868 l 1042 694 l 868 521 l 694 521 l 694 174 l 347 174 z "},",":{"ha":521,"x_min":0,"x_max":347,"o":"m 0 -174 l 0 347 l 347 347 l 347 0 l 174 -174 l 0 -174 z "},"-":{"ha":1215,"x_min":0,"x_max":1042,"o":"m 0 521 l 0 868 l 1042 868 l 1042 521 l 0 521 z "},".":{"ha":521,"x_min":0,"x_max":347,"o":"m 0 0 l 0 347 l 347 347 l 347 0 l 0 0 z "},"/":{"ha":1563,"x_min":0,"x_max":1389,"o":"m 0 0 l 0 260 l 1128 1389 l 1389 1389 l 1389 1128 l 260 0 l 0 0 z "},":":{"ha":521,"x_min":0,"x_max":347,"o":"m 0 0 l 0 347 l 347 347 l 347 0 l 0 0 m 0 521 l 0 868 l 347 868 l 347 521 l 0 521 z "},";":{"ha":521,"x_min":0,"x_max":347,"o":"m 0 -174 l 0 347 l 347 347 l 347 0 l 174 -174 l 0 -174 m 0 521 l 0 868 l 347 868 l 347 521 l 0 521 z "},"<":{"ha":694,"x_min":0,"x_max":521,"o":"m 174 -174 l 0 0 l 0 1389 l 174 1563 l 521 1563 l 521 1215 l 347 1215 l 347 174 l 521 174 l 521 -174 l 174 -174 z "},"=":{"ha":1215,"x_min":0,"x_max":1042,"o":"m 0 174 l 0 521 l 1042 521 l 1042 174 l 0 174 m 0 694 l 0 1042 l 1042 1042 l 1042 694 l 0 694 z "},">":{"ha":694,"x_min":0,"x_max":521,"o":"m 0 -174 l 0 174 l 174 174 l 174 1215 l 0 1215 l 0 1563 l 347 1563 l 521 1389 l 521 0 l 347 -174 l 0 -174 z "},"?":{"ha":1563,"x_min":0,"x_max":1389,"o":"m 0 0 l 0 347 l 347 347 l 347 0 l 0 0 m 0 521 l 0 694 l 174 868 l 1042 868 l 1042 1042 l 0 1042 l 0 1389 l 1215 1389 l 1389 1215 l 1389 694 l 1215 521 l 0 521 z "},"@":{"ha":1563,"x_min":0,"x_max":1389,"o":"m 174 0 l 0 174 l 0 1215 l 174 1389 l 1215 1389 l 1389 1215 l 1389 521 l 521 521 l 521 868 l 1042 868 l 1042 1042 l 347 1042 l 347 347 l 1389 347 l 1389 0 l 174 0 z "},"A":{"ha":1563,"x_min":0,"x_max":1389,"o":"m 1042 694 l 1042 1042 l 347 1042 l 347 694 l 1042 694 m 0 0 l 0 1215 l 174 1389 l 1215 1389 l 1389 1215 l 1389 0 l 1042 0 l 1042 347 l 347 347 l 347 0 l 0 0 z "},"B":{"ha":1563,"x_min":0,"x_max":1389,"o":"m 1042 347 l 1042 521 l 347 521 l 347 347 l 1042 347 m 1042 868 l 1042 1042 l 347 1042 l 347 868 l 1042 868 m 0 0 l 0 1389 l 1215 1389 l 1389 1215 l 1389 868 l 1215 694 l 1389 521 l 1389 174 l 1215 0 l 0 0 z "},"C":{"ha":1563,"x_min":0,"x_max":1389,"o":"m 174 0 l 0 174 l 0 1215 l 174 1389 l 1215 1389 l 1389 1215 l 1389 868 l 1042 868 l 1042 1042 l 347 1042 l 347 347 l 1042 347 l 1042 521 l 1389 521 l 1389 174 l 1215 0 l 174 0 z "},"D":{"ha":1563,"x_min":0,"x_max":1389,"o":"m 1042 347 l 1042 1042 l 347 1042 l 347 347 l 1042 347 m 0 0 l 0 1389 l 1215 1389 l 1389 1215 l 1389 174 l 1215 0 l 0 0 z "},"E":{"ha":1563,"x_min":0,"x_max":1389,"o":"m 0 0 l 0 1389 l 1389 1389 l 1389 1042 l 347 1042 l 347 868 l 1215 868 l 1215 521 l 347 521 l 347 347 l 1389 347 l 1389 0 l 0 0 z "},"F":{"ha":1563,"x_min":0,"x_max":1389,"o":"m 0 0 l 0 1389 l 1389 1389 l 1389 1042 l 347 1042 l 347 868 l 1215 868 l 1215 521 l 347 521 l 347 0 l 0 0 z "},"G":{"ha":1563,"x_min":0,"x_max":1389,"o":"m 174 0 l 0 174 l 0 1215 l 174 1389 l 1389 1389 l 1389 1042 l 347 1042 l 347 347 l 1042 347 l 1042 521 l 521 521 l 521 868 l 1389 868 l 1389 174 l 1215 0 l 174 0 z "},"H":{"ha":1563,"x_min":0,"x_max":1389,"o":"m 0 0 l 0 1389 l 347 1389 l 347 868 l 1042 868 l 1042 1389 l 1389 1389 l 1389 0 l 1042 0 l 1042 521 l 347 521 l 347 0 l 0 0 z "},"I":{"ha":521,"x_min":0,"x_max":347,"o":"m 0 0 l 0 1389 l 347 1389 l 347 0 l 0 0 z "},"J":{"ha":1563,"x_min":0,"x_max":1389,"o":"m 174 0 l 0 174 l 0 521 l 347 521 l 347 347 l 1042 347 l 1042 1389 l 1389 1389 l 1389 174 l 1215 0 l 174 0 z "},"K":{"ha":1563,"x_min":0,"x_max":1389,"o":"m 174 0 l 0 174 l 0 1389 l 347 1389 l 347 694 l 1042 1389 l 1389 1389 l 1389 1215 l 868 694 l 1389 174 l 1389 0 l 1042 0 l 694 347 l 694 348 l 608 434 l 347 174 l 347 0 l 174 0 z "},"L":{"ha":1563,"x_min":0,"x_max":1389,"o":"m 0 0 l 0 1389 l 347 1389 l 347 347 l 1389 347 l 1389 0 l 0 0 z "},"M":{"ha":1563,"x_min":0,"x_max":1389,"o":"m 174 0 l 0 174 l 0 1389 l 347 1389 l 694 1042 l 1042 1389 l 1389 1389 l 1389 0 l 1042 0 l 1042 868 l 694 521 l 347 868 l 347 0 l 174 0 z "},"N":{"ha":1563,"x_min":0,"x_max":1389,"o":"m 174 0 l 0 174 l 0 1389 l 347 1389 l 1042 694 l 1042 1389 l 1389 1389 l 1389 0 l 1042 0 l 1042 174 l 347 868 l 347 0 l 174 0 z "},"O":{"ha":1563,"x_min":0,"x_max":1389,"o":"m 1042 347 l 1042 1042 l 347 1042 l 347 347 l 1042 347 m 174 0 l 0 174 l 0 1215 l 174 1389 l 1215 1389 l 1389 1215 l 1389 174 l 1215 0 l 174 0 z "},"P":{"ha":1563,"x_min":0,"x_max":1389,"o":"m 1042 868 l 1042 1042 l 347 1042 l 347 868 l 1042 868 m 0 0 l 0 1389 l 1215 1389 l 1389 1215 l 1389 694 l 1215 521 l 347 521 l 347 0 l 0 0 z "},"Q":{"ha":1563,"x_min":0,"x_max":1389,"o":"m 1042 347 l 1042 1042 l 347 1042 l 347 347 l 1042 347 m 1042 -347 l 694 0 l 174 0 l 0 174 l 0 1215 l 174 1389 l 1215 1389 l 1389 1215 l 1389 174 l 1215 0 l 1389 -174 l 1215 -347 l 1042 -347 z "},"R":{"ha":1563,"x_min":0,"x_max":1389,"o":"m 1042 868 l 1042 1042 l 347 1042 l 347 868 l 1042 868 m 0 0 l 0 1389 l 1215 1389 l 1389 1215 l 1389 694 l 1215 521 l 1042 521 l 1389 174 l 1215 0 l 1042 0 l 521 521 l 347 521 l 347 0 l 0 0 z "},"S":{"ha":1563,"x_min":0,"x_max":1389,"o":"m 0 0 l 0 347 l 1042 347 l 1042 521 l 174 521 l 0 694 l 0 1215 l 174 1389 l 1389 1389 l 1389 1042 l 347 1042 l 347 868 l 1215 868 l 1389 694 l 1389 174 l 1215 0 l 0 0 z "},"T":{"ha":1563,"x_min":0,"x_max":1389,"o":"m 521 0 l 521 1042 l 0 1042 l 0 1389 l 1389 1389 l 1389 1042 l 868 1042 l 868 0 l 521 0 z "},"U":{"ha":1563,"x_min":0,"x_max":1389,"o":"m 174 0 l 0 174 l 0 1215 l 174 1389 l 347 1389 l 347 347 l 1042 347 l 1042 1389 l 1389 1389 l 1389 174 l 1215 0 l 174 0 z "},"V":{"ha":1563,"x_min":0,"x_max":1389,"o":"m 521 0 l 0 521 l 0 1215 l 174 1389 l 347 1389 l 347 694 l 694 347 l 1042 694 l 1042 1389 l 1389 1389 l 1389 521 l 868 0 l 521 0 z "},"W":{"ha":1563,"x_min":0,"x_max":1389,"o":"m 0 0 l 0 1215 l 174 1389 l 347 1389 l 347 521 l 694 868 l 1042 521 l 1042 1389 l 1389 1389 l 1389 0 l 1042 0 l 694 347 l 347 0 l 0 0 z "},"X":{"ha":1563,"x_min":0,"x_max":1389,"o":"m 0 0 l 0 260 l 434 694 l 0 1128 l 0 1389 l 260 1389 l 694 955 l 1128 1389 l 1389 1389 l 1389 1128 l 955 694 l 1389 260 l 1389 0 l 1128 0 l 694 434 l 260 0 l 0 0 z "},"Y":{"ha":1563,"x_min":0,"x_max":1389,"o":"m 694 0 l 521 174 l 521 608 l 0 1128 l 0 1389 l 260 1389 l 694 955 l 1128 1389 l 1389 1389 l 1389 1128 l 868 608 l 868 0 l 694 0 z "},"Z":{"ha":1563,"x_min":0,"x_max":1389,"o":"m 0 0 l 0 260 l 781 1042 l 0 1042 l 0 1215 l 174 1389 l 1389 1389 l 1389 1128 l 608 347 l 1389 347 l 1389 0 l 0 0 z "},"[":{"ha":694,"x_min":0,"x_max":521,"o":"m 0 -174 l 0 1563 l 521 1563 l 521 1215 l 347 1215 l 347 174 l 521 174 l 521 -174 l 0 -174 z "},"\\":{"ha":1563,"x_min":0,"x_max":1389,"o":"m 1128 0 l 0 1128 l 0 1389 l 260 1389 l 1389 260 l 1389 0 l 1128 0 z "},"]":{"ha":694,"x_min":0,"x_max":521,"o":"m 0 -174 l 0 174 l 174 174 l 174 1215 l 0 1215 l 0 1563 l 521 1563 l 521 -174 l 0 -174 z "},"^":{"ha":521,"x_min":0,"x_max":347,"o":"m 0 868 l 0 1389 l 347 1389 l 347 1042 l 174 868 l 0 868 z "},"_":{"ha":1563,"x_min":0,"x_max":1389,"o":"m 0 0 l 0 347 l 1389 347 l 1389 174 l 1215 0 l 0 0 z "},"`":{"ha":521,"x_min":0,"x_max":347,"o":"m 174 868 l 0 1042 l 0 1389 l 347 1389 l 347 868 l 174 868 z "},"a":{"ha":1563,"x_min":0,"x_max":1389,"o":"m 1042 694 l 1042 1042 l 347 1042 l 347 694 l 1042 694 m 0 0 l 0 1215 l 174 1389 l 1215 1389 l 1389 1215 l 1389 0 l 1042 0 l 1042 347 l 347 347 l 347 0 l 0 0 z "},"b":{"ha":1563,"x_min":0,"x_max":1389,"o":"m 1042 347 l 1042 521 l 347 521 l 347 347 l 1042 347 m 1042 868 l 1042 1042 l 347 1042 l 347 868 l 1042 868 m 0 0 l 0 1389 l 1215 1389 l 1389 1215 l 1389 868 l 1215 694 l 1389 521 l 1389 174 l 1215 0 l 0 0 z "},"c":{"ha":1563,"x_min":0,"x_max":1389,"o":"m 174 0 l 0 174 l 0 1215 l 174 1389 l 1215 1389 l 1389 1215 l 1389 868 l 1042 868 l 1042 1042 l 347 1042 l 347 347 l 1042 347 l 1042 521 l 1389 521 l 1389 174 l 1215 0 l 174 0 z "},"d":{"ha":1563,"x_min":0,"x_max":1389,"o":"m 1042 347 l 1042 1042 l 347 1042 l 347 347 l 1042 347 m 0 0 l 0 1389 l 1215 1389 l 1389 1215 l 1389 174 l 1215 0 l 0 0 z "},"e":{"ha":1563,"x_min":0,"x_max":1389,"o":"m 0 0 l 0 1389 l 1389 1389 l 1389 1042 l 347 1042 l 347 868 l 1215 868 l 1215 521 l 347 521 l 347 347 l 1389 347 l 1389 0 l 0 0 z "},"f":{"ha":1563,"x_min":0,"x_max":1389,"o":"m 0 0 l 0 1389 l 1389 1389 l 1389 1042 l 347 1042 l 347 868 l 1215 868 l 1215 521 l 347 521 l 347 0 l 0 0 z "},"g":{"ha":1563,"x_min":0,"x_max":1389,"o":"m 174 0 l 0 174 l 0 1215 l 174 1389 l 1389 1389 l 1389 1042 l 347 1042 l 347 347 l 1042 347 l 1042 521 l 521 521 l 521 868 l 1389 868 l 1389 174 l 1215 0 l 174 0 z "},"h":{"ha":1563,"x_min":0,"x_max":1389,"o":"m 0 0 l 0 1389 l 347 1389 l 347 868 l 1042 868 l 1042 1389 l 1389 1389 l 1389 0 l 1042 0 l 1042 521 l 347 521 l 347 0 l 0 0 z "},"i":{"ha":521,"x_min":0,"x_max":347,"o":"m 0 0 l 0 1389 l 347 1389 l 347 0 l 0 0 z "},"j":{"ha":1563,"x_min":0,"x_max":1389,"o":"m 174 0 l 0 174 l 0 521 l 347 521 l 347 347 l 1042 347 l 1042 1389 l 1389 1389 l 1389 174 l 1215 0 l 174 0 z "},"k":{"ha":1563,"x_min":0,"x_max":1389,"o":"m 174 0 l 0 174 l 0 1389 l 347 1389 l 347 694 l 1042 1389 l 1389 1389 l 1389 1215 l 868 694 l 1389 174 l 1389 0 l 1042 0 l 694 347 l 694 348 l 608 434 l 347 174 l 347 0 l 174 0 z "},"l":{"ha":1563,"x_min":0,"x_max":1389,"o":"m 0 0 l 0 1389 l 347 1389 l 347 347 l 1389 347 l 1389 0 l 0 0 z "},"m":{"ha":1563,"x_min":0,"x_max":1389,"o":"m 174 0 l 0 174 l 0 1389 l 347 1389 l 694 1042 l 1042 1389 l 1389 1389 l 1389 0 l 1042 0 l 1042 868 l 694 521 l 347 868 l 347 0 l 174 0 z "},"n":{"ha":1563,"x_min":0,"x_max":1389,"o":"m 174 0 l 0 174 l 0 1389 l 347 1389 l 1042 694 l 1042 1389 l 1389 1389 l 1389 0 l 1042 0 l 1042 174 l 347 868 l 347 0 l 174 0 z "},"o":{"ha":1563,"x_min":0,"x_max":1389,"o":"m 1042 347 l 1042 1042 l 347 1042 l 347 347 l 1042 347 m 174 0 l 0 174 l 0 1215 l 174 1389 l 1215 1389 l 1389 1215 l 1389 174 l 1215 0 l 174 0 z "},"p":{"ha":1563,"x_min":0,"x_max":1389,"o":"m 1042 868 l 1042 1042 l 347 1042 l 347 868 l 1042 868 m 0 0 l 0 1389 l 1215 1389 l 1389 1215 l 1389 694 l 1215 521 l 347 521 l 347 0 l 0 0 z "},"q":{"ha":1563,"x_min":0,"x_max":1389,"o":"m 1042 347 l 1042 1042 l 347 1042 l 347 347 l 1042 347 m 1042 -347 l 694 0 l 174 0 l 0 174 l 0 1215 l 174 1389 l 1215 1389 l 1389 1215 l 1389 174 l 1215 0 l 1389 -174 l 1215 -347 l 1042 -347 z "},"r":{"ha":1563,"x_min":0,"x_max":1389,"o":"m 1042 868 l 1042 1042 l 347 1042 l 347 868 l 1042 868 m 0 0 l 0 1389 l 1215 1389 l 1389 1215 l 1389 694 l 1215 521 l 1042 521 l 1389 174 l 1215 0 l 1042 0 l 521 521 l 347 521 l 347 0 l 0 0 z "},"s":{"ha":1563,"x_min":0,"x_max":1389,"o":"m 0 0 l 0 347 l 1042 347 l 1042 521 l 174 521 l 0 694 l 0 1215 l 174 1389 l 1389 1389 l 1389 1042 l 347 1042 l 347 868 l 1215 868 l 1389 694 l 1389 174 l 1215 0 l 0 0 z "},"t":{"ha":1563,"x_min":0,"x_max":1389,"o":"m 521 0 l 521 1042 l 0 1042 l 0 1389 l 1389 1389 l 1389 1042 l 868 1042 l 868 0 l 521 0 z "},"u":{"ha":1563,"x_min":0,"x_max":1389,"o":"m 174 0 l 0 174 l 0 1215 l 174 1389 l 347 1389 l 347 347 l 1042 347 l 1042 1389 l 1389 1389 l 1389 174 l 1215 0 l 174 0 z "},"v":{"ha":1563,"x_min":0,"x_max":1389,"o":"m 521 0 l 0 521 l 0 1215 l 174 1389 l 347 1389 l 347 694 l 694 347 l 1042 694 l 1042 1389 l 1389 1389 l 1389 521 l 868 0 l 521 0 z "},"w":{"ha":1563,"x_min":0,"x_max":1389,"o":"m 0 0 l 0 1215 l 174 1389 l 347 1389 l 347 521 l 694 868 l 1042 521 l 1042 1389 l 1389 1389 l 1389 0 l 1042 0 l 694 347 l 347 0 l 0 0 z "},"x":{"ha":1563,"x_min":0,"x_max":1389,"o":"m 0 0 l 0 260 l 434 694 l 0 1128 l 0 1389 l 260 1389 l 694 955 l 1128 1389 l 1389 1389 l 1389 1128 l 955 694 l 1389 260 l 1389 0 l 1128 0 l 694 434 l 260 0 l 0 0 z "},"y":{"ha":1563,"x_min":0,"x_max":1389,"o":"m 694 0 l 521 174 l 521 608 l 0 1128 l 0 1389 l 260 1389 l 694 955 l 1128 1389 l 1389 1389 l 1389 1128 l 868 608 l 868 0 l 694 0 z "},"z":{"ha":1563,"x_min":0,"x_max":1389,"o":"m 0 0 l 0 260 l 781 1042 l 0 1042 l 0 1215 l 174 1389 l 1389 1389 l 1389 1128 l 608 347 l 1389 347 l 1389 0 l 0 0 z "},"{":{"ha":868,"x_min":0,"x_max":694,"o":"m 347 -174 l 174 0 l 174 521 l 0 521 l 0 868 l 174 868 l 174 1389 l 347 1563 l 694 1563 l 694 1215 l 521 1215 l 521 868 l 347 694 l 521 521 l 521 174 l 694 174 l 694 -174 l 347 -174 z "},"|":{"ha":521,"x_min":0,"x_max":347,"o":"m 0 0 l 0 1389 l 347 1389 l 347 0 l 0 0 z "},"}":{"ha":868,"x_min":0,"x_max":694,"o":"m 0 -174 l 0 174 l 174 174 l 174 521 l 347 694 l 174 868 l 174 1215 l 0 1215 l 0 1563 l 347 1563 l 521 1389 l 521 868 l 694 868 l 694 521 l 521 521 l 521 0 l 347 -174 l 0 -174 z "},"~":{"ha":1215,"x_min":0,"x_max":1042,"o":"m 0 521 l 0 868 l 1042 868 l 1042 521 l 0 521 z "},"‘":{"ha":521,"x_min":0,"x_max":347,"o":"m 0 868 l 0 1215 l 174 1389 l 347 1389 l 347 868 l 0 868 z "},"’":{"ha":521,"x_min":0,"x_max":347,"o":"m 0 868 l 0 1389 l 347 1389 l 347 1042 l 174 868 l 0 868 z "},"“":{"ha":1042,"x_min":0,"x_max":868,"o":"m 0 868 l 0 1215 l 174 1389 l 347 1389 l 347 868 l 0 868 m 521 868 l 521 1215 l 694 1389 l 868 1389 l 868 868 l 521 868 z "},"”":{"ha":1042,"x_min":0,"x_max":868,"o":"m 0 868 l 0 1389 l 347 1389 l 347 1042 l 174 868 l 0 868 m 521 868 l 521 1389 l 868 1389 l 868 1042 l 694 868 l 521 868 z "}}}
